<?xml version="1.0" encoding="UTF-8" standalone="no"?>
<!-- Created with Inkscape (http://www.inkscape.org/) -->

<svg
   width="94.652405mm"
   height="86.953308mm"
   viewBox="0 0 94.652405 86.953308"
   version="1.1"
   id="svg867"
   inkscape:export-filename="tree.svg"
   inkscape:export-xdpi="96"
   inkscape:export-ydpi="96"
   inkscape:version="1.2.1 (9c6d41e410, 2022-07-14)"
   sodipodi:docname="tree.svg"
   xmlns:inkscape="http://www.inkscape.org/namespaces/inkscape"
   xmlns:sodipodi="http://sodipodi.sourceforge.net/DTD/sodipodi-0.dtd"
   xmlns="http://www.w3.org/2000/svg"
   xmlns:svg="http://www.w3.org/2000/svg">
  <sodipodi:namedview
     id="namedview869"
     pagecolor="#ffffff"
     bordercolor="#000000"
     borderopacity="0.25"
     inkscape:showpageshadow="2"
     inkscape:pageopacity="0.0"
     inkscape:pagecheckerboard="0"
     inkscape:deskcolor="#d1d1d1"
     inkscape:document-units="mm"
     showgrid="false"
     inkscape:zoom="0.74564394"
     inkscape:cx="178.36932"
     inkscape:cy="164.95809"
     inkscape:window-width="2560"
     inkscape:window-height="1017"
     inkscape:window-x="-8"
     inkscape:window-y="-8"
     inkscape:window-maximized="1"
     inkscape:current-layer="layer1" />
  <defs
     id="defs864" />
  <g
     inkscape:label="Layer 1"
     inkscape:groupmode="layer"
     id="layer1"
     transform="translate(-57.706058,-105.20078)">
    <path
       d="m 99.925799,192.15409 h 22.167851 c 0.004,-0.055 0.0166,-0.10721 0.0166,-0.1633 0,-1.17521 -0.95285,-2.12757 -2.12795,-2.12757 -0.0991,0 -0.19439,0.0159 -0.28999,0.0292 -0.27481,-1.92514 -1.92581,-3.40638 -3.92677,-3.40638 -0.97613,0 -1.86901,0.35373 -2.56081,0.93831 -0.65687,-0.71053 -1.59385,-1.15785 -2.63807,-1.15785 -0.38171,0 -0.7493,0.0608 -1.09467,0.17117 -0.70485,-1.50566 -2.22885,-2.5509 -4.00121,-2.5509 -2.44087,0 -4.4196,1.97873 -4.4196,4.41953 0,0.37013 0.0504,0.72746 0.13617,1.071 -0.74894,0.69825 -1.2259,1.68067 -1.261531,2.77675"
       style="fill:#5dc241;fill-opacity:1;fill-rule:nonzero;stroke:none;stroke-width:0.0352778"
       id="path100" />
    <path
       d="m 104.29107,177.58757 c -1.44286,0.41946 -2.96615,0.64876 -4.542718,0.64876 -6.080831,0 -11.391548,-3.34892 -14.193662,-8.29698 h -4.05377 c 3.083631,7.0171 10.091209,11.91969 18.247432,11.91969 1.563868,0 3.082928,-0.18591 4.542718,-0.52641 v -3.74506"
       style="fill:#994d24;fill-opacity:1;fill-rule:nonzero;stroke:none;stroke-width:0.0352778"
       id="path102" />
    <path
       d="m 118.22897,166.00023 v -0.68791 c -2.2038,4.70006 -6.5853,8.1795 -11.83816,9.1373 v 3.67523 c 7.03509,-1.03681 12.87109,-5.74957 15.49858,-12.12462 h -3.66042"
       style="fill:#994d24;fill-opacity:1;fill-rule:nonzero;stroke:none;stroke-width:0.0352778"
       id="path104" />
    <path
       d="m 103.72522,160.11167 c -2.53789,1.63089 -5.552727,2.58162 -8.787346,2.58162 -8.299451,0 -15.165565,-6.23499 -16.17204,-14.26598 h -3.651956 c 1.020939,10.04817 9.506656,17.88901 19.823996,17.88901 3.154539,0 6.136216,-0.73589 8.787346,-2.04117 v -4.16348"
       style="fill:#994d24;fill-opacity:1;fill-rule:nonzero;stroke:none;stroke-width:0.0352778"
       id="path106" />
    <path
       d="m 104.29107,181.33263 v -3.74506 c -1.44286,0.41946 -2.96615,0.64876 -4.542718,0.64876 -0.794456,0 -1.575153,-0.0603 -2.339622,-0.17074 v 3.65619 c 0.767644,0.09 1.547989,0.13726 2.339622,0.13726 1.563868,0 3.082928,-0.18591 4.542718,-0.52641"
       style="fill:#7b3a1b;fill-opacity:1;fill-rule:nonzero;stroke:none;stroke-width:0.0352778"
       id="path108" />
    <path
       d="m 106.39081,174.44962 v 3.67523 c 1.66193,-0.24482 3.25366,-0.70132 4.75544,-1.32997 v -4.0132 c -1.4665,0.78705 -3.06493,1.35961 -4.75544,1.66794"
       style="fill:#7b3a1b;fill-opacity:1;fill-rule:nonzero;stroke:none;stroke-width:0.0352778"
       id="path110" />
    <path
       d="m 103.72522,160.60803 h -0.57256 c -1.73779,1.01988 -3.675241,1.73319 -5.74393,2.05069 v 3.6576 c 2.241902,-0.27834 4.36915,-0.92639 6.31649,-1.88524 v -3.82305"
       style="fill:#7b3a1b;fill-opacity:1;fill-rule:nonzero;stroke:none;stroke-width:0.0352778"
       id="path112" />
    <path
       d="m 78.765834,148.42731 h -3.651956 c 0.258586,2.5453 0.998009,4.94806 2.123017,7.11871 h 4.226631 c -1.417461,-2.08104 -2.369962,-4.50356 -2.697692,-7.11871"
       style="fill:#7b3a1b;fill-opacity:1;fill-rule:nonzero;stroke:none;stroke-width:0.0352778"
       id="path114" />
    <path
       d="m 90.020151,174.99466 c -1.814689,-1.35608 -3.343628,-3.07446 -4.465461,-5.05531 h -4.05377 c 0.814564,1.85385 1.905706,3.55812 3.216981,5.06518 h 5.30225 v -0.01"
       style="fill:#7b3a1b;fill-opacity:1;fill-rule:nonzero;stroke:none;stroke-width:0.0352778"
       id="path116" />
    <path
       d="m 118.22897,165.31232 c -0.99166,2.11455 -2.42676,3.97898 -4.18112,5.48075 h 5.01368 c 1.15111,-1.44921 2.11208,-3.05646 2.82786,-4.79284 h -3.66042 v -0.68791"
       style="fill:#7b3a1b;fill-opacity:1;fill-rule:nonzero;stroke:none;stroke-width:0.0352778"
       id="path118" />
    <path
       d="m 106.39081,192.15409 h -4.69865 V 147.0924 h 4.69865 v 45.06169"
       style="fill:#ba6233;fill-opacity:1;fill-rule:nonzero;stroke:none;stroke-width:0.0352778"
       id="path120" />
    <path
       d="m 106.39081,155.54602 h -4.69865 v -7.4348 h 4.69865 v 7.4348"
       style="fill:#994d24;fill-opacity:1;fill-rule:nonzero;stroke:none;stroke-width:0.0352778"
       id="path122" />
    <path
       d="m 145.47365,151.62101 c 0.12911,-0.5461 0.20461,-1.11266 0.20461,-1.69827 0,-4.06435 -3.29459,-7.3593 -7.3593,-7.3593 -0.0914,0 -0.17992,0.0102 -0.27058,0.0138 0.17039,-0.65687 0.27058,-1.34161 0.27058,-2.05176 0,-4.36986 -3.44099,-7.92656 -7.76005,-8.13223 0.33372,-1.0795 0.51399,-2.22673 0.51399,-3.4163 0,-5.64409 -4.04989,-10.33921 -9.40117,-11.34604 0.2226,-0.82268 0.3436,-1.68698 0.3436,-2.58022 0,-5.43983 -4.41007,-9.84991 -9.85026,-9.84991 -4.99145,0 -9.11295,3.71334 -9.75924,8.52805 -2.06728,-1.38147 -4.551189,-2.18792 -7.223834,-2.18792 -7.191023,0 -13.020323,5.82965 -13.020323,13.02032 0,0.85796 0.08537,1.69545 0.243417,2.50684 -1.10737,-0.37536 -2.292703,-0.58208 -3.52672,-0.58208 -6.065661,0 -10.982678,4.91701 -10.982678,10.98267 0,0.61278 0.05256,1.21356 0.149225,1.79917 -0.419453,-0.0596 -0.845256,-0.10089 -1.281289,-0.10089 -5.00239,0 -9.05757,4.05518 -9.05757,9.05757 0,1.20226 0.239183,2.34703 0.664633,3.39654 h 87.102959"
       style="fill:#5dc241;fill-opacity:1;fill-rule:nonzero;stroke:none;stroke-width:0.0352778"
       id="path124" />
    <path
       d="m 129.03491,150.09242 c 0,-2.9023 -1.05446,-5.62857 -2.94817,-7.74488 0.003,-0.0981 0.005,-0.19579 0.005,-0.29351 0,-5.6007 -4.54166,-10.16035 -10.13531,-10.18999 -2.25566,-3.84669 -6.43466,-6.34047 -11.037,-6.34047 -6.255813,0 -11.477277,4.51308 -12.579707,10.45457 -2.717095,1.42981 -4.71029,3.92888 -5.501217,6.89045 -3.161948,1.3896 -5.355873,4.55366 -5.355873,8.18621 0,0.18627 0.0081,0.37571 0.02046,0.56621 h 47.428157 c 0.0677,-0.50976 0.10407,-1.02129 0.10407,-1.52859"
       style="fill:#4fa737;fill-opacity:1;fill-rule:nonzero;stroke:none;stroke-width:0.0352778"
       id="path126" />
    <path
       d="m 110.41036,145.65025 c 0.018,0.0272 0.0335,0.0564 0.0519,0.0832 h -0.16333 c 0.0374,-0.0272 0.0744,-0.0554 0.11148,-0.0832 z m 14.8537,5.97076 c 0.0956,-0.49495 0.14782,-1.00542 0.14782,-1.52859 0,-2.60385 -1.24354,-4.91172 -3.16301,-6.38069 0.13829,-0.53058 0.21943,-1.08408 0.21943,-1.6577 0,-3.62691 -2.94005,-6.56696 -6.56696,-6.56696 -0.756,0 -1.4792,0.13441 -2.15547,0.36936 -1.07668,-3.86786 -4.61575,-6.70983 -8.82685,-6.70983 -5.064835,0 -9.170816,4.10598 -9.170816,9.17116 0,0.0723 0.0092,0.14252 0.01058,0.21484 -3.252612,0.78529 -5.671609,3.70699 -5.671609,7.2009 0,0.006 7.06e-4,0.0113 7.06e-4,0.0173 -2.780242,0.17533 -4.982634,2.47967 -4.982634,5.30401 0,0.19156 0.01129,0.3803 0.03104,0.56621 h 40.127763"
       style="fill:#6cc850;fill-opacity:1;fill-rule:nonzero;stroke:none;stroke-width:0.0352778"
       id="path128" />
    <path
       d="m 145.67826,149.92274 c 0,-4.06435 -3.29459,-7.3593 -7.3593,-7.3593 -0.0914,0 -0.17992,0.0102 -0.27058,0.0138 0.17039,-0.65687 0.27058,-1.34161 0.27058,-2.05176 0,-4.36986 -3.44099,-7.92656 -7.76005,-8.13223 0.33372,-1.0795 0.51399,-2.22673 0.51399,-3.4163 0,-0.98355 -0.13017,-1.93569 -0.36159,-2.84727 -4.71629,1.04987 -8.48925,4.63338 -9.791,9.25089 -0.4258,-0.042 -0.85407,-0.0631 -1.2827,-0.0631 -7.30426,0 -13.2468,5.94219 -13.2468,13.24681 0,1.02764 0.12558,2.0514 0.36618,3.05682 h 38.71666 c 0.12911,-0.5461 0.20461,-1.11266 0.20461,-1.69827"
       style="fill:#4fa737;fill-opacity:1;fill-rule:nonzero;stroke:none;stroke-width:0.0352778"
       id="path130" />
    <path
       d="m 110.29888,145.7335 c 0.0374,-0.0272 0.0744,-0.0554 0.11148,-0.0832 0.018,0.0272 0.0335,0.0564 0.0519,0.0832 z m 15.113,4.35892 c 0,-2.60385 -1.24354,-4.91172 -3.16301,-6.38069 0.13829,-0.53058 0.21943,-1.08408 0.21943,-1.6577 0,-3.25649 -2.37278,-5.95171 -5.48181,-6.46995 -6.03815,1.23155 -10.59568,6.58319 -10.59568,12.98011 0,1.02764 0.12558,2.0514 0.36618,3.05682 h 18.50707 c 0.0956,-0.49495 0.14782,-1.00542 0.14782,-1.52859"
       style="fill:#5dc241;fill-opacity:1;fill-rule:nonzero;stroke:none;stroke-width:0.0352778"
       id="path132" />
    <path
       d="m 152.2177,151.62101 c 0.0885,-0.47766 0.14076,-0.96837 0.14076,-1.47179 0,-4.43971 -3.59904,-8.03875 -8.03875,-8.03875 -0.64946,0 -1.27776,0.0854 -1.88277,0.23072 0.40569,-1.05727 0.63746,-2.20063 0.63746,-3.40078 0,-5.25251 -4.25802,-9.51053 -9.51053,-9.51053 -5.25251,0 -9.51054,4.25802 -9.51054,9.51053 0,0.37712 0.0279,0.74719 0.0706,1.11266 -1.34021,-0.70767 -2.86526,-1.11266 -4.48628,-1.11266 -5.31495,0 -9.62378,4.30848 -9.62378,9.62378 0,1.06998 0.18204,2.0955 0.50412,3.05682 h 41.69975"
       style="fill:#7ece56;fill-opacity:1;fill-rule:nonzero;stroke:none;stroke-width:0.0352778"
       id="path134" />
    <path
       d="m 94.389304,171.54802 c 0.549628,-1.05022 0.864659,-2.24261 0.864659,-3.50979 0,-4.18959 -3.396192,-7.58578 -7.585781,-7.58578 -3.345745,0 -6.179962,2.16888 -7.188201,5.17525 -0.490714,-0.12206 -1.001183,-0.19367 -1.529644,-0.19367 -3.425473,0 -6.20889,2.71815 -6.329187,6.11399 h 21.768154"
       style="fill:#7ece56;fill-opacity:1;fill-rule:nonzero;stroke:none;stroke-width:0.0352778"
       id="path136" />
    <path
       d="m 112.70235,167.1457 c -0.4325,-0.82655 -0.68015,-1.76459 -0.68015,-2.76189 0,-3.29707 2.67229,-5.96936 5.96935,-5.96936 2.63278,0 4.86304,1.70674 5.65644,4.07247 0.38594,-0.096 0.78775,-0.1524 1.20368,-0.1524 2.69557,0 4.88562,2.13889 4.98051,4.81118 h -17.12983"
       style="fill:#6cc850;fill-opacity:1;fill-rule:nonzero;stroke:none;stroke-width:0.0352778"
       id="path138" />
    <path
       d="m 98.876991,118.78692 c 0,1.00048 -0.811036,1.81152 -1.811514,1.81152 -1.000478,0 -1.811514,-0.81104 -1.811514,-1.81152 0,-1.00048 0.811036,-1.81151 1.811514,-1.81151 1.000478,0 1.811514,0.81103 1.811514,1.81151"
       style="fill:#4fa737;fill-opacity:1;fill-rule:nonzero;stroke:none;stroke-width:0.0352778"
       id="path140" />
    <path
       d="m 108.20232,120.14582 c 0,0.75036 -0.60819,1.35855 -1.35855,1.35855 -0.75036,0 -1.35855,-0.60819 -1.35855,-1.35855 0,-0.75036 0.60819,-1.3589 1.35855,-1.3589 0.75036,0 1.35855,0.60854 1.35855,1.3589"
       style="fill:#4fa737;fill-opacity:1;fill-rule:nonzero;stroke:none;stroke-width:0.0352778"
       id="path142" />
    <path
       d="m 112.0222,114.35639 c 0,0.55456 -0.44979,1.00435 -1.00436,1.00435 -0.55422,0 -1.00401,-0.44979 -1.00401,-1.00435 0,-0.55422 0.44979,-1.00401 1.00401,-1.00401 0.55457,0 1.00436,0.44979 1.00436,1.00401"
       style="fill:#4fa737;fill-opacity:1;fill-rule:nonzero;stroke:none;stroke-width:0.0352778"
       id="path144" />
    <path
       d="m 86.916765,133.27939 c 0,0.50024 -0.405342,0.90558 -0.905581,0.90558 -0.500239,0 -0.905933,-0.40534 -0.905933,-0.90558 0,-0.50024 0.405694,-0.90594 0.905933,-0.90594 0.500239,0 0.905581,0.4057 0.905581,0.90594"
       style="fill:#4fa737;fill-opacity:1;fill-rule:nonzero;stroke:none;stroke-width:0.0352778"
       id="path146" />
    <path
       d="m 121.12633,127.27017 c 0,0.63006 -0.51082,1.14053 -1.14053,1.14053 -0.63006,0 -1.14053,-0.51047 -1.14053,-1.14053 0,-0.62971 0.51047,-1.14053 1.14053,-1.14053 0.62971,0 1.14053,0.51082 1.14053,1.14053"
       style="fill:#4fa737;fill-opacity:1;fill-rule:nonzero;stroke:none;stroke-width:0.0352778"
       id="path148" />
    <path
       d="m 78.085678,142.08225 c 0,0.93804 -0.760236,1.69827 -1.698272,1.69827 -0.938036,0 -1.698272,-0.76023 -1.698272,-1.69827 0,-0.93803 0.760236,-1.69827 1.698272,-1.69827 0.938036,0 1.698272,0.76024 1.698272,1.69827"
       style="fill:#4fa737;fill-opacity:1;fill-rule:nonzero;stroke:none;stroke-width:0.0352778"
       id="path150" />
    <path
       d="m 78.384834,136.5828 c 0,0.55174 -0.44697,0.99907 -0.998714,0.99907 -0.551745,0 -0.998714,-0.44733 -0.998714,-0.99907 0,-0.55139 0.446969,-0.99872 0.998714,-0.99872 0.551744,0 0.998714,0.44733 0.998714,0.99872"
       style="fill:#4fa737;fill-opacity:1;fill-rule:nonzero;stroke:none;stroke-width:0.0352778"
       id="path152" />
    <path
       d="m 69.028108,146.07323 c 0,0.56268 -0.456141,1.01917 -1.019175,1.01917 -0.56268,0 -1.018822,-0.45649 -1.018822,-1.01917 0,-0.56268 0.456142,-1.01883 1.018822,-1.01883 0.563034,0 1.019175,0.45615 1.019175,1.01883"
       style="fill:#4fa737;fill-opacity:1;fill-rule:nonzero;stroke:none;stroke-width:0.0352778"
       id="path154" />
    <path
       d="m 104.60716,137.72897 c 0,0.63324 -0.51294,1.14653 -1.14617,1.14653 -0.63289,0 -1.14618,-0.51329 -1.14618,-1.14653 0,-0.63288 0.51329,-1.14617 1.14618,-1.14617 0.63323,0 1.14617,0.51329 1.14617,1.14617"
       style="fill:#5dc241;fill-opacity:1;fill-rule:nonzero;stroke:none;stroke-width:0.0352778"
       id="path156" />
    <path
       d="m 110.14718,134.93109 c 0,0.91229 -0.73942,1.65171 -1.6517,1.65171 -0.91229,0 -1.65171,-0.73942 -1.65171,-1.65171 0,-0.91228 0.73942,-1.6517 1.65171,-1.6517 0.91228,0 1.6517,0.73942 1.6517,1.6517"
       style="fill:#5dc241;fill-opacity:1;fill-rule:nonzero;stroke:none;stroke-width:0.0352778"
       id="path158" />
    <path
       d="m 104.94724,142.15316 c 0,0.89853 -0.72849,1.62736 -1.62737,1.62736 -0.89887,0 -1.62771,-0.72883 -1.62771,-1.62736 0,-0.89888 0.72884,-1.62772 1.62771,-1.62772 0.89888,0 1.62737,0.72884 1.62737,1.62772"
       style="fill:#5dc241;fill-opacity:1;fill-rule:nonzero;stroke:none;stroke-width:0.0352778"
       id="path160" />
    <path
       d="m 98.565488,145.43646 c 0,0.9144 -0.741186,1.65594 -1.655586,1.65594 -0.914753,0 -1.655939,-0.74154 -1.655939,-1.65594 0,-0.9144 0.741186,-1.65594 1.655939,-1.65594 0.9144,0 1.655586,0.74154 1.655586,1.65594"
       style="fill:#5dc241;fill-opacity:1;fill-rule:nonzero;stroke:none;stroke-width:0.0352778"
       id="path162" />
    <path
       d="m 103.73015,148.11122 c 0,0.56269 -0.45614,1.01883 -1.01882,1.01883 -0.56303,0 -1.01917,-0.45614 -1.01917,-1.01883 0,-0.56268 0.45614,-1.01882 1.01917,-1.01882 0.56268,0 1.01882,0.45614 1.01882,1.01882"
       style="fill:#5dc241;fill-opacity:1;fill-rule:nonzero;stroke:none;stroke-width:0.0352778"
       id="path164" />
    <path
       d="m 134.92242,137.9417 c 0,0.75036 -0.60819,1.35855 -1.35855,1.35855 -0.75036,0 -1.35855,-0.60819 -1.35855,-1.35855 0,-0.75036 0.60819,-1.3589 1.35855,-1.3589 0.75036,0 1.35855,0.60854 1.35855,1.3589"
       style="fill:#6cc850;fill-opacity:1;fill-rule:nonzero;stroke:none;stroke-width:0.0352778"
       id="path166" />
    <path
       d="m 129.81243,144.21056 c 0,1.0287 -0.83397,1.86267 -1.86267,1.86267 -1.02905,0 -1.86302,-0.83397 -1.86302,-1.86267 0,-1.02905 0.83397,-1.86302 1.86302,-1.86302 1.0287,0 1.86267,0.83397 1.86267,1.86302"
       style="fill:#6cc850;fill-opacity:1;fill-rule:nonzero;stroke:none;stroke-width:0.0352778"
       id="path168" />
    <path
       d="m 134.88008,146.77384 c 0,0.73872 -0.59901,1.33738 -1.33738,1.33738 -0.73872,0 -1.33738,-0.59866 -1.33738,-1.33738 0,-0.73871 0.59866,-1.33738 1.33738,-1.33738 0.73837,0 1.33738,0.59867 1.33738,1.33738"
       style="fill:#6cc850;fill-opacity:1;fill-rule:nonzero;stroke:none;stroke-width:0.0352778"
       id="path170" />
    <path
       d="m 137.05072,143.14623 c 0,0.58773 -0.4766,1.06433 -1.06433,1.06433 -0.58737,0 -1.06397,-0.4766 -1.06397,-1.06433 0,-0.58773 0.4766,-1.06398 1.06397,-1.06398 0.58773,0 1.06433,0.47625 1.06433,1.06398"
       style="fill:#6cc850;fill-opacity:1;fill-rule:nonzero;stroke:none;stroke-width:0.0352778"
       id="path172" />
    <path
       d="m 121.13798,144.92705 c 0,0.63289 -0.5133,1.14618 -1.14653,1.14618 -0.63324,0 -1.14618,-0.51329 -1.14618,-1.14618 0,-0.63323 0.51294,-1.14653 1.14618,-1.14653 0.63323,0 1.14653,0.5133 1.14653,1.14653"
       style="fill:#6cc850;fill-opacity:1;fill-rule:nonzero;stroke:none;stroke-width:0.0352778"
       id="path174" />
    <path
       d="m 143.0744,146.34204 c 0,0.50024 -0.40569,0.90594 -0.90593,0.90594 -0.50024,0 -0.90558,-0.4057 -0.90558,-0.90594 0,-0.50023 0.40534,-0.90558 0.90558,-0.90558 0.50024,0 0.90593,0.40535 0.90593,0.90558"
       style="fill:#6cc850;fill-opacity:1;fill-rule:nonzero;stroke:none;stroke-width:0.0352778"
       id="path176" />
    <path
       d="m 89.634212,165.88699 c 0,0.75036 -0.608189,1.35855 -1.358547,1.35855 -0.750358,0 -1.3589,-0.60819 -1.3589,-1.35855 0,-0.75036 0.608542,-1.3589 1.3589,-1.3589 0.750358,0 1.358547,0.60854 1.358547,1.3589"
       style="fill:#6cc850;fill-opacity:1;fill-rule:nonzero;stroke:none;stroke-width:0.0352778"
       id="path178" />
    <path
       d="m 85.444976,167.1891 c 0,0.65651 -0.532342,1.1885 -1.188861,1.1885 -0.65652,0 -1.188861,-0.53199 -1.188861,-1.1885 0,-0.65688 0.532341,-1.18887 1.188861,-1.18887 0.656519,0 1.188861,0.53199 1.188861,1.18887"
       style="fill:#6cc850;fill-opacity:1;fill-rule:nonzero;stroke:none;stroke-width:0.0352778"
       id="path180" />
    <path
       d="m 118.22897,161.61626 c 0,0.64277 -0.52105,1.16382 -1.16381,1.16382 -0.64277,0 -1.16382,-0.52105 -1.16382,-1.16382 0,-0.64276 0.52105,-1.16381 1.16382,-1.16381 0.64276,0 1.16381,0.52105 1.16381,1.16381"
       style="fill:#5dc241;fill-opacity:1;fill-rule:nonzero;stroke:none;stroke-width:0.0352778"
       id="path182" />
    <path
       d="m 121.73382,163.65426 c 0,0.4826 -0.39123,0.87383 -0.87383,0.87383 -0.48296,0 -0.87419,-0.39123 -0.87419,-0.87383 0,-0.48295 0.39123,-0.87418 0.87419,-0.87418 0.4826,0 0.87383,0.39123 0.87383,0.87418"
       style="fill:#5dc241;fill-opacity:1;fill-rule:nonzero;stroke:none;stroke-width:0.0352778"
       id="path184" />
    <path
       d="m 101.86361,192.15409 c 1.15499,-1.25127 1.86654,-2.91815 1.86654,-4.75548 0,-3.87657 -3.14289,-7.01951 -7.019568,-7.01951 -3.015544,0 -5.579181,1.90508 -6.572956,4.57405 -0.204611,-0.0267 -0.411691,-0.0451 -0.623711,-0.0451 -1.870781,0 -3.486503,1.07625 -4.272492,2.64156 -0.351014,-0.0956 -0.718255,-0.15102 -1.099255,-0.15102 -2.313164,0 -4.188178,1.87536 -4.188178,4.18828 0,0.19293 0.01729,0.38128 0.04269,0.5672 h 21.86693"
       style="fill:#7ece56;fill-opacity:1;fill-rule:nonzero;stroke:none;stroke-width:0.0352778"
       id="path186" />
  </g>
</svg>
